<svg xmlns="http://www.w3.org/2000/svg" xmlns:xlink="http://www.w3.org/1999/xlink" width="223" zoomAndPan="magnify" viewBox="0 0 167.25 167.249997" height="223" preserveAspectRatio="xMidYMid meet" version="1.0"><defs><clipPath id="1cbc910b94"><path d="M 0 0 L 166.503906 0 L 166.503906 166.503906 L 0 166.503906 Z M 0 0 " clip-rule="nonzero"/></clipPath><clipPath id="aed52a8c8d"><path d="M 15 43 L 156 43 L 156 123.605469 L 15 123.605469 Z M 15 43 " clip-rule="nonzero"/></clipPath><clipPath id="c4622feeaa"><path d="M 149 90 L 157.765625 90 L 157.765625 103 L 149 103 Z M 149 90 " clip-rule="nonzero"/></clipPath><clipPath id="5f5d39adac"><path d="M 8.4375 77 L 18 77 L 18 91 L 8.4375 91 Z M 8.4375 77 " clip-rule="nonzero"/></clipPath></defs><g clip-path="url(#1cbc910b94)"><path fill="#ffffff" d="M 0 0 L 166.503906 0 L 166.503906 166.503906 L 0 166.503906 Z M 0 0 " fill-opacity="1" fill-rule="nonzero"/></g><g clip-path="url(#aed52a8c8d)"><path fill="#000000" d="M 106.402344 46.964844 C 106.675781 47.066406 106.949219 47.175781 107.222656 47.289062 L 107.214844 47.289062 C 107.96875 47.664062 108.699219 48.0625 109.40625 48.480469 C 109.140625 48.476562 108.878906 48.472656 108.609375 48.472656 C 108.292969 48.472656 107.972656 48.476562 107.648438 48.484375 L 107.621094 48.484375 C 104.460938 48.609375 101.40625 48.921875 98.457031 49.425781 C 101.070312 48.285156 103.71875 47.464844 106.394531 46.964844 Z M 97.75 45.371094 C 99.125 45.371094 100.484375 45.484375 101.828125 45.714844 L 101.820312 45.714844 C 98.898438 46.617188 96.011719 47.882812 93.167969 49.515625 C 92.3125 48.339844 91.242188 47.355469 89.953125 46.554688 L 89.945312 46.554688 C 92.597656 45.765625 95.199219 45.371094 97.75 45.371094 Z M 86.898438 47.625 C 86.980469 47.648438 87.066406 47.671875 87.152344 47.699219 L 87.144531 47.699219 C 88.816406 48.402344 90.152344 49.417969 91.152344 50.742188 L 91.144531 50.742188 C 90.777344 50.976562 90.414062 51.21875 90.050781 51.464844 L 90.042969 51.464844 C 89.710938 51.570312 89.378906 51.679688 89.046875 51.792969 C 86.542969 51.035156 83.921875 50.640625 81.183594 50.601562 L 81.179688 50.601562 C 81.847656 50.164062 82.527344 49.742188 83.21875 49.339844 L 83.214844 49.339844 C 84.453125 48.6875 85.675781 48.117188 86.890625 47.625 Z M 82.453125 47.136719 C 82.351562 47.191406 82.25 47.242188 82.148438 47.296875 L 82.109375 47.320312 C 80.292969 48.375 78.554688 49.542969 76.882812 50.828125 L 76.878906 50.828125 C 75.09375 51.035156 73.265625 51.378906 71.390625 51.867188 C 71.601562 51.6875 71.820312 51.511719 72.039062 51.335938 C 75.558594 48.703125 79.027344 47.304688 82.445312 47.136719 Z M 84.328125 56.171875 C 81.492188 58.980469 79.125 62.078125 77.222656 65.472656 C 75.726562 64.988281 74.105469 64.726562 72.359375 64.6875 L 72.320312 64.6875 C 72 64.691406 71.683594 64.703125 71.363281 64.726562 C 75.304688 61.214844 79.621094 58.363281 84.320312 56.171875 Z M 80.742188 52.917969 C 82.257812 52.917969 83.734375 53.035156 85.171875 53.269531 L 85.167969 53.269531 C 78.414062 56.128906 72.378906 60.25 67.066406 65.640625 L 67.0625 65.640625 C 66.765625 65.746094 66.46875 65.859375 66.171875 65.984375 C 69.519531 60.832031 73.382812 56.527344 77.765625 53.0625 L 77.757812 53.0625 C 78.769531 52.964844 79.761719 52.917969 80.742188 52.917969 Z M 73.40625 53.761719 C 69.273438 57.570312 65.636719 62.171875 62.496094 67.566406 C 62.519531 67.363281 62.542969 67.164062 62.570312 66.960938 C 63.359375 62.5625 65.132812 58.695312 67.898438 55.363281 L 67.890625 55.363281 C 69.773438 54.691406 71.609375 54.15625 73.398438 53.761719 Z M 89.78125 54.472656 C 90.953125 54.898438 92.097656 55.414062 93.207031 56.019531 L 93.203125 56.019531 C 93.578125 58.613281 93.378906 61.734375 92.605469 65.386719 L 92.601562 65.386719 C 91.398438 69.585938 89.535156 73.632812 87.007812 77.53125 C 86.972656 75.917969 86.472656 74.136719 85.5 72.191406 C 85.480469 72.15625 85.460938 72.121094 85.4375 72.089844 C 83.792969 69.503906 81.769531 67.59375 79.375 66.363281 L 79.367188 66.363281 C 81.84375 62.015625 85.136719 58.183594 89.25 54.863281 L 89.246094 54.863281 C 89.421875 54.730469 89.601562 54.601562 89.777344 54.472656 Z M 78.285156 68.414062 C 80.34375 69.464844 82.082031 71.101562 83.5 73.324219 L 83.492188 73.324219 C 84.378906 75.121094 84.753906 76.726562 84.617188 78.136719 L 84.609375 78.136719 C 84.519531 78.140625 84.429688 78.144531 84.339844 78.148438 L 84.335938 78.148438 C 80.164062 78.300781 76.832031 79.457031 74.335938 81.617188 C 74.433594 80.859375 74.546875 80.09375 74.675781 79.324219 C 75.421875 75.402344 76.625 71.765625 78.277344 68.414062 Z M 72.332031 66.996094 C 73.6875 67.027344 74.957031 67.214844 76.136719 67.5625 L 76.128906 67.5625 C 74.429688 71.050781 73.195312 74.824219 72.417969 78.890625 L 72.414062 78.917969 C 72.234375 79.992188 72.082031 81.054688 71.960938 82.105469 C 70.480469 81.511719 68.976562 80.679688 67.441406 79.609375 L 67.4375 79.609375 C 65.574219 78.121094 64.230469 76.402344 63.402344 74.453125 L 63.394531 74.453125 C 64.652344 72.210938 66.296875 69.941406 68.332031 67.652344 L 68.324219 67.652344 C 69.652344 67.234375 70.984375 67.015625 72.324219 66.996094 Z M 95.6875 57.785156 C 101.878906 62.992188 103.683594 70.003906 101.097656 78.824219 C 100.671875 80.015625 100.214844 81.167969 99.730469 82.292969 C 98.332031 81.613281 96.882812 80.90625 95.386719 80.171875 C 95.347656 80.152344 95.3125 80.136719 95.273438 80.125 C 93.105469 79.332031 91.066406 78.777344 89.15625 78.453125 L 89.152344 78.453125 C 91.707031 74.445312 93.601562 70.273438 94.832031 65.945312 C 94.839844 65.917969 94.847656 65.890625 94.851562 65.867188 C 95.488281 62.863281 95.761719 60.167969 95.679688 57.785156 Z M 83.804688 80.484375 C 83.355469 81.179688 82.730469 81.804688 81.925781 82.363281 L 81.917969 82.363281 C 80.441406 82.933594 78.929688 83.222656 77.382812 83.222656 C 76.964844 83.222656 76.542969 83.199219 76.117188 83.15625 L 76.113281 83.15625 C 78.074219 81.582031 80.636719 80.691406 83.796875 80.484375 Z M 63.917969 56.964844 C 62.140625 59.847656 60.9375 63.042969 60.308594 66.550781 L 60.300781 66.59375 C 60.148438 67.703125 60.082031 68.769531 60.109375 69.796875 L 60.101562 69.796875 C 59.515625 70.296875 58.929688 70.828125 58.347656 71.402344 L 58.339844 71.410156 C 56.648438 73.101562 55.503906 74.585938 54.910156 75.863281 L 54.90625 75.863281 C 54.191406 77.039062 53.707031 79.464844 53.445312 83.148438 L 53.441406 83.148438 C 53.390625 83.234375 53.308594 83.300781 53.195312 83.34375 L 53.1875 83.34375 C 51.550781 83.445312 49.039062 83.496094 45.664062 83.496094 C 44.628906 83.496094 43.515625 83.492188 42.320312 83.480469 L 42.3125 83.480469 C 42.328125 83.359375 42.34375 83.238281 42.359375 83.113281 L 42.355469 83.113281 C 44.59375 72.375 51.550781 63.761719 63.226562 57.277344 L 63.21875 57.277344 C 63.453125 57.167969 63.683594 57.066406 63.914062 56.964844 Z M 117.253906 51.6875 C 123.144531 53.070312 127.382812 56.039062 129.972656 60.59375 L 129.96875 60.59375 C 133.203125 67.078125 131.949219 75.074219 126.203125 84.585938 C 126.300781 83.996094 126.398438 83.402344 126.484375 82.804688 C 126.492188 82.769531 126.496094 82.738281 126.496094 82.703125 C 127.328125 69.1875 124.246094 58.847656 117.246094 51.6875 Z M 112.773438 46.371094 C 113.636719 46.371094 114.503906 46.402344 115.371094 46.464844 L 115.367188 46.464844 C 126.609375 47.960938 133.566406 52.90625 136.234375 61.308594 L 136.230469 61.308594 C 138.5 70.761719 135.347656 79.808594 126.773438 88.449219 C 126.222656 88.996094 125.65625 89.53125 125.078125 90.054688 C 125.085938 90.019531 125.09375 89.988281 125.105469 89.953125 L 125.097656 89.953125 C 126.070312 88.769531 127.003906 87.523438 127.894531 86.21875 L 127.925781 86.171875 C 134.335938 75.738281 135.691406 66.847656 131.992188 59.5 L 131.964844 59.449219 C 128.496094 53.339844 122.496094 49.78125 113.964844 48.773438 L 113.957031 48.773438 C 112.875 47.941406 111.71875 47.164062 110.496094 46.445312 L 110.488281 46.445312 C 111.246094 46.394531 112.007812 46.371094 112.773438 46.371094 Z M 108.605469 50.78125 C 110.160156 50.78125 111.640625 50.851562 113.046875 50.996094 L 113.039062 50.996094 C 121.363281 57.703125 125.085938 68.226562 124.203125 82.5625 L 124.199219 82.5625 C 123.871094 84.753906 123.46875 86.863281 122.992188 88.886719 L 122.988281 88.886719 C 122.136719 89.894531 121.257812 90.855469 120.34375 91.769531 C 115.859375 89.914062 109.679688 87.089844 101.804688 83.296875 L 101.800781 83.296875 C 102.328125 82.082031 102.824219 80.828125 103.28125 79.539062 C 103.289062 79.519531 103.296875 79.496094 103.300781 79.476562 C 106.417969 68.84375 103.757812 60.550781 95.328125 54.605469 L 95.320312 54.605469 C 95.171875 53.882812 94.984375 53.195312 94.753906 52.546875 L 94.746094 52.546875 C 98.832031 51.558594 103.148438 50.972656 107.695312 50.789062 L 107.6875 50.789062 C 107.996094 50.785156 108.304688 50.78125 108.605469 50.78125 Z M 81.160156 85.039062 C 79.136719 87.242188 76.878906 89.398438 74.382812 91.496094 L 74.378906 91.496094 C 74.21875 91.617188 74.054688 91.734375 73.894531 91.851562 C 73.789062 89.796875 73.804688 87.6875 73.949219 85.523438 L 73.941406 85.523438 C 74.015625 85.414062 74.09375 85.308594 74.167969 85.203125 L 74.175781 85.203125 C 75.246094 85.429688 76.308594 85.542969 77.359375 85.542969 C 78.640625 85.542969 79.90625 85.375 81.15625 85.039062 Z M 62.121094 77.046875 C 63.078125 78.652344 64.371094 80.109375 66.007812 81.417969 C 66.027344 81.429688 66.046875 81.445312 66.066406 81.460938 C 67.980469 82.800781 69.867188 83.8125 71.726562 84.492188 L 71.722656 84.492188 C 71.714844 84.585938 71.707031 84.679688 71.699219 84.769531 L 71.691406 84.769531 C 71.566406 84.976562 71.445312 85.1875 71.328125 85.402344 C 71.3125 85.429688 71.300781 85.460938 71.289062 85.488281 C 70.011719 88.367188 69.867188 91.171875 70.851562 93.894531 L 70.847656 93.894531 C 68.675781 95.222656 66.539062 96.269531 64.429688 97.035156 C 64.402344 97 64.378906 96.96875 64.351562 96.933594 L 64.347656 96.933594 C 59.929688 90.515625 59.1875 83.886719 62.117188 77.046875 Z M 58.890625 91.011719 C 59.574219 93.277344 60.652344 95.527344 62.128906 97.761719 L 62.125 97.761719 C 61.59375 97.902344 61.0625 98.027344 60.535156 98.128906 C 59.667969 95.828125 59.121094 93.457031 58.882812 91.011719 Z M 59.589844 73.429688 C 55.925781 82.449219 55.46875 90.796875 58.214844 98.476562 L 58.207031 98.476562 C 57.484375 98.546875 56.761719 98.582031 56.042969 98.582031 C 54.398438 98.582031 52.773438 98.398438 51.164062 98.023438 L 51.160156 98.023438 C 45.148438 96.054688 42.15625 91.972656 42.179688 85.785156 L 42.183594 85.785156 C 43.425781 85.796875 44.585938 85.800781 45.660156 85.800781 C 49.199219 85.800781 51.804688 85.746094 53.476562 85.636719 C 53.546875 85.632812 53.617188 85.621094 53.6875 85.601562 C 54.722656 85.332031 55.386719 84.707031 55.679688 83.71875 C 55.707031 83.632812 55.722656 83.550781 55.726562 83.464844 C 55.964844 79.96875 56.351562 77.828125 56.886719 77.035156 C 56.921875 76.980469 56.953125 76.925781 56.980469 76.867188 C 57.410156 75.925781 58.28125 74.777344 59.585938 73.429688 Z M 87.734375 80.578125 C 89.78125 80.828125 92.023438 81.394531 94.457031 82.28125 L 94.449219 82.28125 C 95.9375 83.011719 97.375 83.710938 98.769531 84.386719 L 98.761719 84.386719 C 95.089844 91.894531 89.886719 97.769531 83.15625 102.019531 C 80.683594 101.011719 78.34375 99.601562 76.136719 97.792969 L 76.128906 97.792969 C 75.371094 97.011719 74.734375 96.222656 74.214844 95.429688 L 74.210938 95.429688 C 74.171875 95.132812 74.136719 94.828125 74.105469 94.527344 L 74.097656 94.527344 C 74.664062 94.140625 75.234375 93.730469 75.804688 93.308594 C 75.824219 93.292969 75.839844 93.28125 75.859375 93.265625 C 80.644531 89.234375 84.601562 85.007812 87.726562 80.578125 Z M 71.839844 95.988281 C 71.894531 96.082031 71.949219 96.171875 72.003906 96.265625 L 72 96.265625 C 72.332031 98.671875 72.839844 101.007812 73.519531 103.273438 C 70.621094 102.242188 68.160156 100.773438 66.132812 98.859375 L 66.125 98.859375 C 68.011719 98.113281 69.914062 97.15625 71.835938 95.988281 Z M 100.839844 85.386719 C 108.132812 88.894531 114.035156 91.585938 118.550781 93.46875 L 118.542969 93.46875 C 115.226562 96.433594 111.515625 98.832031 107.417969 100.660156 L 107.410156 100.660156 C 104.425781 101.800781 101.253906 102.769531 97.898438 103.558594 L 97.894531 103.558594 C 96.265625 103.804688 94.675781 103.925781 93.128906 103.925781 C 90.621094 103.925781 88.214844 103.605469 85.917969 102.964844 L 85.914062 102.964844 C 92.28125 98.578125 97.253906 92.71875 100.832031 85.386719 Z M 74.992188 99.828125 C 76.816406 101.289062 78.71875 102.5 80.707031 103.460938 L 80.699219 103.460938 C 80.003906 103.839844 79.289062 104.207031 78.5625 104.554688 C 77.75 104.417969 76.960938 104.257812 76.195312 104.070312 L 76.191406 104.070312 C 75.71875 102.6875 75.316406 101.273438 74.988281 99.828125 Z M 83.382812 104.589844 C 83.875 104.765625 84.371094 104.929688 84.875 105.078125 C 84.125 105.070312 83.390625 105.046875 82.675781 105.003906 L 82.667969 105.003906 C 82.90625 104.867188 83.144531 104.730469 83.378906 104.589844 Z M 63.71875 99.710938 C 66.457031 102.597656 69.953125 104.667969 74.214844 105.929688 L 74.207031 105.929688 C 73.273438 106.105469 72.375 106.195312 71.507812 106.195312 C 67.425781 106.195312 64.128906 104.21875 61.625 100.265625 L 61.617188 100.265625 C 62.316406 100.109375 63.011719 99.925781 63.714844 99.710938 Z M 120.785156 96.351562 C 116.769531 107.328125 110.101562 115.183594 100.777344 119.925781 L 100.769531 119.925781 C 98.652344 120.742188 96.601562 121.148438 94.617188 121.148438 C 89.28125 121.148438 84.429688 118.210938 80.0625 112.335938 L 80.058594 112.335938 C 79.09375 110.753906 78.242188 109.121094 77.503906 107.441406 L 77.5 107.441406 C 77.949219 107.289062 78.40625 107.121094 78.871094 106.9375 L 78.875 106.9375 C 80.929688 107.238281 83.125 107.390625 85.464844 107.390625 C 87.757812 107.390625 90.183594 107.246094 92.75 106.957031 C 92.769531 106.953125 92.792969 106.949219 92.8125 106.945312 C 94.695312 106.621094 96.53125 106.25 98.3125 105.832031 L 98.308594 105.832031 C 99.480469 105.652344 100.675781 105.417969 101.890625 105.121094 L 101.933594 105.105469 C 104.152344 104.46875 106.273438 103.695312 108.308594 102.792969 L 108.300781 102.792969 C 112.871094 101.042969 117.03125 98.894531 120.777344 96.351562 Z M 97.742188 43.054688 C 94.15625 43.054688 90.488281 43.773438 86.730469 45.210938 C 85.523438 44.941406 84.316406 44.804688 83.105469 44.804688 C 78.984375 44.804688 74.835938 46.367188 70.667969 49.488281 L 70.640625 49.507812 C 69.113281 50.71875 67.746094 52.015625 66.539062 53.402344 L 66.535156 53.402344 C 65.132812 53.921875 63.707031 54.515625 62.261719 55.179688 C 62.234375 55.191406 62.207031 55.203125 62.183594 55.21875 C 49.851562 62.050781 42.496094 71.191406 40.105469 82.640625 C 40.101562 82.671875 40.09375 82.699219 40.089844 82.730469 C 40.058594 82.972656 40.03125 83.21875 40.007812 83.457031 C 33.925781 83.386719 26.054688 83.207031 16.394531 82.925781 C 16.386719 82.925781 16.375 82.925781 16.363281 82.925781 C 15.742188 82.925781 15.234375 83.421875 15.214844 84.046875 C 15.195312 84.683594 15.695312 85.214844 16.328125 85.234375 C 25.9375 85.511719 33.785156 85.691406 39.878906 85.761719 L 39.871094 85.761719 C 39.796875 93.074219 43.332031 97.898438 50.480469 100.230469 C 50.511719 100.238281 50.542969 100.246094 50.574219 100.253906 C 52.386719 100.679688 54.21875 100.894531 56.066406 100.894531 C 57.101562 100.894531 58.144531 100.828125 59.191406 100.695312 L 59.195312 100.695312 C 62.203125 105.941406 66.242188 108.566406 71.3125 108.566406 C 72.570312 108.566406 73.886719 108.40625 75.269531 108.082031 L 75.273438 108.082031 C 76.082031 109.957031 77.023438 111.773438 78.097656 113.539062 C 78.113281 113.570312 78.132812 113.597656 78.15625 113.625 C 83.015625 120.203125 88.464844 123.492188 94.496094 123.492188 C 96.804688 123.492188 99.199219 123.011719 101.675781 122.050781 C 101.710938 122.035156 101.746094 122.019531 101.78125 122.003906 C 112.160156 116.734375 119.414062 107.878906 123.542969 95.429688 L 123.550781 95.429688 C 125.960938 96.292969 127.648438 96.730469 128.605469 96.742188 L 128.597656 96.742188 C 132.0625 97.589844 136.003906 98.015625 140.421875 98.015625 C 144.789062 98.015625 149.625 97.597656 154.929688 96.769531 C 155.554688 96.671875 155.984375 96.082031 155.886719 95.453125 C 155.796875 94.882812 155.308594 94.476562 154.753906 94.476562 C 154.695312 94.476562 154.636719 94.480469 154.574219 94.488281 C 149.382812 95.300781 144.664062 95.707031 140.417969 95.707031 C 136.132812 95.707031 132.328125 95.292969 129.003906 94.46875 C 128.914062 94.445312 128.820312 94.433594 128.730469 94.433594 C 128.707031 94.433594 128.6875 94.433594 128.667969 94.433594 C 128.632812 94.4375 128.597656 94.4375 128.558594 94.4375 C 127.839844 94.4375 126.542969 94.109375 124.671875 93.449219 L 124.664062 93.449219 C 125.964844 92.382812 127.210938 91.261719 128.394531 90.082031 L 128.398438 90.078125 C 137.605469 80.800781 140.953125 71.003906 138.441406 60.683594 C 138.4375 60.660156 138.429688 60.632812 138.421875 60.609375 C 135.457031 51.265625 127.855469 45.785156 115.625 44.171875 C 115.601562 44.171875 115.582031 44.167969 115.558594 44.167969 C 114.621094 44.097656 113.6875 44.0625 112.757812 44.0625 C 110.683594 44.0625 108.632812 44.234375 106.597656 44.578125 C 103.707031 43.5625 100.753906 43.054688 97.742188 43.054688 Z M 97.742188 43.054688 " fill-opacity="0.988" fill-rule="nonzero"/></g><g clip-path="url(#c4622feeaa)"><path fill="#000000" d="M 155.480469 95.988281 Z M 150.292969 90.796875 C 149.917969 90.796875 149.550781 90.980469 149.332031 91.316406 C 148.984375 91.851562 149.132812 92.566406 149.664062 92.914062 L 152.917969 95.054688 C 153.328125 95.328125 154.09375 95.765625 155.214844 96.363281 L 155.210938 96.363281 C 155.15625 96.425781 155.09375 96.492188 155.019531 96.566406 C 155 96.589844 154.980469 96.613281 154.960938 96.636719 C 154.671875 96.988281 153.355469 98.25 151.011719 100.421875 C 150.546875 100.855469 150.519531 101.585938 150.949219 102.054688 C 151.175781 102.300781 151.484375 102.425781 151.792969 102.425781 C 152.070312 102.425781 152.351562 102.324219 152.570312 102.117188 C 154.875 99.980469 156.242188 98.667969 156.675781 98.171875 L 156.671875 98.171875 C 157.140625 97.683594 157.453125 97.246094 157.609375 96.847656 C 157.746094 96.515625 157.785156 96.191406 157.734375 95.882812 C 157.683594 95.550781 157.523438 95.25 157.257812 94.972656 C 157.144531 94.859375 157.011719 94.746094 156.855469 94.632812 C 156.8125 94.605469 156.765625 94.578125 156.722656 94.550781 C 155.425781 93.867188 154.578125 93.390625 154.175781 93.128906 L 154.175781 93.125 L 150.921875 90.984375 C 150.726562 90.855469 150.507812 90.796875 150.292969 90.796875 Z M 150.292969 90.796875 " fill-opacity="0.988" fill-rule="nonzero"/></g><g clip-path="url(#5f5d39adac)"><path fill="#000000" d="M 9.757812 77.71875 C 9.410156 77.71875 9.0625 77.878906 8.835938 78.183594 C 8.457031 78.691406 8.5625 79.417969 9.070312 79.796875 C 10.304688 80.726562 12.378906 82.09375 15.300781 83.898438 L 15.292969 83.898438 C 14.824219 84.730469 13.226562 86.261719 10.503906 88.496094 C 10.011719 88.898438 9.941406 89.625 10.339844 90.121094 C 10.566406 90.398438 10.898438 90.542969 11.230469 90.542969 C 11.488281 90.542969 11.742188 90.457031 11.957031 90.28125 C 15.46875 87.402344 17.371094 85.347656 17.660156 84.121094 C 17.695312 83.976562 17.714844 83.839844 17.71875 83.703125 C 17.71875 83.644531 17.714844 83.589844 17.710938 83.53125 C 17.671875 83.21875 17.542969 82.925781 17.320312 82.644531 C 17.160156 82.441406 16.945312 82.242188 16.671875 82.042969 C 16.648438 82.023438 16.621094 82.007812 16.597656 81.992188 C 13.6875 80.195312 11.636719 78.847656 10.445312 77.949219 C 10.238281 77.796875 9.996094 77.71875 9.757812 77.71875 Z M 9.757812 77.71875 " fill-opacity="0.988" fill-rule="nonzero"/></g></svg>